<svg width="3365" height="500" viewBox="0 0 3365 500" fill="none" xmlns="http://www.w3.org/2000/svg">
<g clip-path="url(#clip0_603_2412)">
<path d="M723.9 160.85H866.7V191.3H756.45V268.3H852.7V298.75H756.45V371.55H870.2V402H723.9V160.85ZM961.774 313.8V402H929.924V238.55H961.774V263.05C971.224 243.45 995.024 235.05 1012.87 235.05C1053.82 235.05 1075.87 261.3 1075.87 307.5V402H1044.02V309.6C1044.02 281.95 1030.37 266.2 1007.97 266.2C984.874 266.2 961.774 279.15 961.774 313.8ZM1274.14 402V376.8C1263.29 395 1239.49 405.5 1216.74 405.5C1171.94 405.5 1133.79 371.9 1133.79 320.1C1133.79 267.95 1171.94 235.05 1216.74 235.05C1239.49 235.05 1262.94 244.5 1274.14 263.05V238.55H1305.64V402H1274.14ZM1273.79 319.75C1273.79 284.75 1246.14 266.2 1219.54 266.2C1190.14 266.2 1166.34 287.55 1166.34 319.75C1166.34 351.95 1190.14 374.35 1219.54 374.35C1248.59 374.35 1273.79 354.4 1273.79 319.75ZM1408.3 376.8V402H1376.45V149.65H1408.3V263.05C1419.15 244.5 1441.9 235.05 1465.7 235.05C1510.85 235.05 1548.3 267.95 1548.3 320.1C1548.3 371.9 1510.15 405.5 1465.35 405.5C1442.6 405.5 1419.15 395 1408.3 376.8ZM1408.65 319.75C1408.65 354.4 1433.85 374.35 1462.9 374.35C1492.3 374.35 1515.75 351.95 1515.75 319.75C1515.75 287.55 1492.3 266.2 1462.9 266.2C1436.3 266.2 1408.65 284.75 1408.65 319.75ZM1608.25 149.65H1640.1V402H1608.25V149.65ZM1731.86 307.5H1833.36C1829.51 279.85 1810.26 263.75 1783.66 263.75C1756.71 263.75 1735.71 279.85 1731.86 307.5ZM1864.86 319.75C1864.86 323.6 1864.86 328.5 1864.51 332.35H1731.86C1735.71 360 1756.71 376.8 1784.71 376.8C1804.31 376.8 1822.16 368.05 1831.61 351.6C1840.01 355.45 1850.16 358.25 1858.91 362.1C1844.91 391.15 1815.51 405.5 1783.66 405.5C1737.11 405.5 1700.01 371.55 1700.01 319.75C1700.01 267.95 1737.11 235.05 1783.66 235.05C1830.21 235.05 1864.86 267.95 1864.86 319.75ZM2110.79 266.2C2083.84 266.2 2067.39 286.5 2067.39 313.8V402H2035.54V309.25C2035.54 282.3 2021.54 266.2 2000.19 266.2C1977.44 266.2 1954.69 279.5 1954.69 313.8V402H1922.84V238.55H1954.69V263.05C1963.09 244.85 1986.54 236.8 1999.84 235.75C2006.14 235.4 2012.09 235.75 2017.69 236.8C2038.34 239.95 2052.69 250.8 2060.39 268.65C2075.44 239.6 2101.34 235.05 2117.09 235.05C2158.04 235.05 2180.09 261.3 2180.09 307.5V402H2148.24V309.6C2148.24 282.65 2134.59 266.2 2110.79 266.2ZM2269.64 307.5H2371.14C2367.29 279.85 2348.04 263.75 2321.44 263.75C2294.49 263.75 2273.49 279.85 2269.64 307.5ZM2402.64 319.75C2402.64 323.6 2402.64 328.5 2402.29 332.35H2269.64C2273.49 360 2294.49 376.8 2322.49 376.8C2342.09 376.8 2359.94 368.05 2369.39 351.6C2377.79 355.45 2387.94 358.25 2396.69 362.1C2382.69 391.15 2353.29 405.5 2321.44 405.5C2274.89 405.5 2237.79 371.55 2237.79 319.75C2237.79 267.95 2274.89 235.05 2321.44 235.05C2367.99 235.05 2402.64 267.95 2402.64 319.75ZM2492.48 313.8V402H2460.63V238.55H2492.48V263.05C2501.93 243.45 2525.73 235.05 2543.58 235.05C2584.53 235.05 2606.58 261.3 2606.58 307.5V402H2574.73V309.6C2574.73 281.95 2561.08 266.2 2538.68 266.2C2515.58 266.2 2492.48 279.15 2492.48 313.8ZM2719.44 238.55H2754.09V265.5H2719.44V402H2687.59V265.5H2658.19V238.55H2687.59V176.95H2719.44V238.55Z" fill="white"/>
<rect width="500" height="500" rx="20" fill="#E11E48"/>
<path d="M272.5 500H311.5C311.776 500 312 500.224 312 500.5V210.468C312 199.435 303.065 190.486 292.032 190.468L0.00163729 190C0.277027 190.001 0.5 190.224 0.5 190.5V230C0.5 229.724 0.724 229.5 0.999993 229.501L271.832 230C271.925 230 272 230.075 272 230.168V500.5C272 500.224 272.224 500 272.5 500Z" fill="white" stroke="white"/>
</g>
<defs>
<clipPath id="clip0_603_2412">
<rect width="3365" height="500" fill="white"/>
</clipPath>
</defs>
</svg>
