<svg width="143" height="32" viewBox="0 0 143 32" fill="none" xmlns="http://www.w3.org/2000/svg">
<path fill-rule="evenodd" clip-rule="evenodd" d="M92.8 25.6V4H88.5V25.6H92.8ZM53.1 26C54.9 26 56.4 25.6 57.6 24.8C58.9 24 59.8 22.7 60.4 20.8H56.6C56.5 21.3 56.1 21.7 55.4 22.2C54.8 22.6 54 22.9 53.2 22.9C52 22.9 51.1 22.6 50.4 22C49.8 21.4 49.4 20.4 49.3 19H60.6C60.7 17.8 60.6 16.6 60.3 15.5C60 14.4 59.6 13.4 58.9 12.5C58.3 11.6 57.5 10.9 56.5 10.4C55.5 9.9 54.4 9.6 53 9.6C51.8 9.6 50.7 9.8 49.7 10.2C48.7 10.6 47.9 11.2 47.2 11.9C46.5 12.6 45.9 13.5 45.6 14.5C45.2 15.5 45 16.6 45 17.8C45 19 45.2 20.1 45.6 21.1C46 22.1 46.5 23 47.2 23.7C47.9 24.4 48.7 25 49.7 25.4C50.8 25.8 51.9 26 53.1 26ZM56.4 16.1H49.4C49.4 15.8 49.5 15.5 49.6 15.1C49.7 14.7 49.9 14.4 50.2 14C50.5 13.7 50.8 13.4 51.3 13.1C51.8 12.9 52.3 12.8 53 12.8C54 12.8 54.8 13.1 55.3 13.6C55.9 14.2 56.2 15 56.4 16.1ZM66.5 16.5V25.6H62.2V10H66.3V12.1H66.4C67 11.3 67.6 10.7 68.4 10.2C69.2 9.8 70.1 9.5 71.1 9.5C72.1 9.5 73 9.7 73.8 10.1C74.6 10.5 75.2 11.2 75.7 12.1C76.2 11.4 76.8 10.8 77.6 10.3C78.4 9.8 79.3 9.5 80.4 9.5C81.2 9.5 82 9.6 82.7 9.8C83.4 10 84 10.3 84.5 10.8C85 11.2 85.4 11.8 85.7 12.5C86 13.2 86.1 14.1 86.1 15.1V25.6H81.8V16.7C81.8 16.2 81.8 15.7 81.7 15.2C81.7 14.7 81.5 14.3 81.4 14C81.2 13.7 81 13.4 80.6 13.2C80.2 13 79.8 12.9 79.2 12.9C78.6 12.9 78.1 13 77.7 13.2C77.3 13.4 77 13.7 76.8 14.1C76.6 14.5 76.4 14.9 76.4 15.4C76.3 15.9 76.3 16.4 76.3 16.8V25.5H72V16.7C72 16.2 72 15.8 72 15.3C72 14.8 71.9 14.4 71.7 14C71.5 13.6 71.3 13.3 70.9 13.1C70.5 12.9 70 12.8 69.3 12.8C69.1 12.8 68.8 12.8 68.5 12.9C68.2 13 67.8 13.2 67.5 13.4C67.2 13.6 66.9 14 66.7 14.5C66.5 15 66.5 15.8 66.5 16.5ZM106.8 24.8C105.5 25.6 104 26 102.3 26C101.1 26 100 25.8 99 25.4C98 25 97.2 24.4 96.5 23.7C95.8 23 95.3 22.1 94.9 21.1C94.5 20.1 94.3 19 94.3 17.8C94.3 16.6 94.5 15.5 94.9 14.5C95.3 13.5 95.8 12.6 96.5 11.9C97.2 11.2 98 10.6 99 10.2C100 9.8 101.1 9.6 102.3 9.6C103.6 9.6 104.8 9.9 105.8 10.4C106.8 10.9 107.6 11.6 108.2 12.5C108.8 13.4 109.3 14.4 109.6 15.5C109.9 16.6 110 17.8 109.9 19H98.5C98.6 20.4 98.9 21.4 99.6 22C100.2 22.6 101.2 22.9 102.4 22.9C103.3 22.9 104 22.7 104.6 22.2C105.2 21.8 105.6 21.3 105.8 20.8H109.6C108.9 22.6 108 24 106.8 24.8ZM105.5 16.1H98.5C98.5 15.8 98.6 15.5 98.7 15.1C98.8 14.7 99 14.4 99.3 14C99.6 13.7 99.9 13.4 100.4 13.1C100.9 12.9 101.4 12.8 102.1 12.8C103.1 12.8 103.9 13.1 104.4 13.6C105 14.2 105.3 15 105.5 16.1ZM115.5 17.4V25.6H111.2V10H115.3V12.2H115.4C115.9 11.3 116.7 10.6 117.5 10.2C118.4 9.8 119.3 9.6 120.2 9.6C121.3 9.6 122.3 9.8 123 10.1C123.7 10.4 124.3 10.8 124.7 11.4C125.1 12 125.4 12.6 125.6 13.4C125.8 14.2 125.9 15.1 125.9 16V25.6H121.6V16.8C121.6 15.5 121.4 14.5 121 13.9C120.6 13.3 119.9 12.9 118.9 12.9C117.7 12.9 116.9 13.2 116.4 13.9C115.8 14.7 115.5 15.8 115.5 17.4Z" fill="#010C42"/>
<path d="M129.1 26C130.204 26 131.1 25.1046 131.1 24C131.1 22.8954 130.204 22 129.1 22C127.995 22 127.1 22.8954 127.1 24C127.1 25.1046 127.995 26 129.1 26Z" fill="#EA4785"/>
<path d="M14.9004 0H36.9004C38.6004 0 39.9004 1.3 39.9004 3V29C39.9004 30.7 38.6004 32 36.9004 32H14.9004C13.2004 32 11.9004 30.7 11.9004 29V3C11.9004 1.3 13.2004 0 14.9004 0Z" fill="#010C42"/>
<path fill-rule="evenodd" clip-rule="evenodd" d="M39.9004 18.4V29C39.9004 30.7 38.6004 32 36.9004 32H14.9004C13.3004 32 11.9004 30.7 11.9004 29C12.3004 29 12.6004 29.1 13.0004 29.1C15.8004 29.1 16.9004 20.4 18.9004 20.4C20.8004 20.4 23.1004 27.3 24.9004 27.3C27.0004 27.3 28.9004 11.9 30.5004 11.9C32.4004 11.9 34.1004 24.6 35.9004 24.6C37.2004 24.5 38.5004 20.6 39.9004 18.4Z" fill="url(#paint0_linear_384_2520)"/>
<path fill-rule="evenodd" clip-rule="evenodd" d="M39.9004 12.7C39.5004 13.7 39.1004 14.7 38.8004 15.7C38.0004 17.9 37.2004 20.1 36.5004 21.7C36.3004 22.1 36.2004 22.5 36.0004 22.8C36.0004 22.7 35.9004 22.7 35.9004 22.6C35.5004 21.5 35.1004 20.1 34.7004 18.6C34.7004 18.5 34.7004 18.5 34.6004 18.4C34.2004 16.8 33.7004 15.2 33.2004 13.9C33.0004 13.3 32.7004 12.7 32.4004 12.2C32.1004 11.8 31.5004 11.1 30.6004 11.1C30.0004 11.1 29.5004 11.5 29.3004 11.7C29.1004 11.9 28.9004 12.2 28.8004 12.5C28.5004 13 28.3004 13.7 28.1004 14.3C27.7004 15.5 27.3004 17 26.9004 18.5C26.8004 18.8 26.8004 19 26.7004 19.3C26.2004 21.1 25.8004 22.8 25.3004 24.1C25.1004 24.6 24.9004 25 24.8004 25.2C24.7004 25.1 24.6004 25.1 24.6004 25C24.2004 24.5 23.7004 23.9 23.2004 23.2C22.7004 22.5 22.1004 21.7 21.5004 21.1C21.0004 20.6 20.1004 19.8 19.0004 19.8C18.3004 19.8 17.8004 20.1 17.4004 20.4C17.0004 20.7 16.7004 21.1 16.5004 21.5C16.1004 22.1 15.7004 22.9 15.3004 23.6C15.2004 23.7 15.2004 23.9 15.1004 24C14.7004 24.9 14.3004 25.6 13.8004 26.1C13.4004 26.6 13.1004 26.7 13.0004 26.7C12.6004 26.7 12.2004 26.7 11.9004 26.7V29.4C12.3004 29.4 12.6004 29.4 13.0004 29.4C14.3004 29.4 15.2004 28.6 15.9004 27.8C16.5004 27 17.1004 26.1 17.5004 25.2C17.6004 25.1 17.6004 24.9 17.7004 24.8C18.1004 24.1 18.4004 23.5 18.7004 23C18.8004 22.8 18.9004 22.7 19.0004 22.6C19.1004 22.7 19.2004 22.8 19.5004 23C19.9004 23.5 20.4004 24.1 20.9004 24.8C20.9004 24.8 20.9004 24.9 21.0004 24.9C21.5004 25.6 22.0004 26.3 22.6004 26.9C22.9004 27.2 23.2004 27.5 23.6004 27.8C24.0004 28 24.5004 28.3 25.0004 28.3C25.5004 28.3 26.0004 28.1 26.2004 27.8C26.5004 27.6 26.7004 27.3 26.9004 27C27.2004 26.5 27.5004 25.8 27.8004 25.1C28.3004 23.7 28.8004 21.8 29.3004 20C29.4004 19.7 29.4004 19.4 29.5004 19.2C29.9004 17.7 30.3004 16.3 30.6004 15.2C30.6004 15.1 30.7004 15 30.7004 15C31.1004 16.1 31.6004 17.6 32.0004 19.2C32.0004 19.3 32.1004 19.4 32.1004 19.5C32.5004 21 32.9004 22.5 33.4004 23.7C33.6004 24.3 33.9004 24.9 34.2004 25.4C34.3004 25.6 34.5004 25.9 34.8004 26.1C35.1004 26.3 35.5004 26.6 36.0004 26.6C36.7004 26.6 37.1004 26.2 37.3004 26C37.5004 25.8 37.7004 25.5 37.9004 25.2C38.3004 24.6 38.6004 23.9 39.0004 23C39.3004 22.3 39.6004 21.5 40.0004 20.6V12.7H39.9004Z" fill="#EA4785"/>
<path fill-rule="evenodd" clip-rule="evenodd" d="M19.6 5.29998C20 4.69998 20.9 4.69998 21.3 5.29998L23.9 9.49998C24.3 10.2 23.8 11 23.1 11H17.8C17 11 16.5 10.1 17 9.49998L19.6 5.29998Z" fill="white"/>
<defs>
<linearGradient id="paint0_linear_384_2520" x1="25.8746" y1="2.62572" x2="25.8746" y2="44.5053" gradientUnits="userSpaceOnUse">
<stop offset="0.2192" stop-color="#EA4785" stop-opacity="0.7964"/>
<stop offset="0.2901" stop-color="#E24682" stop-opacity="0.7163"/>
<stop offset="0.3979" stop-color="#CD427A" stop-opacity="0.5946"/>
<stop offset="0.5291" stop-color="#AB3D6C" stop-opacity="0.4463"/>
<stop offset="0.6788" stop-color="#7B3559" stop-opacity="0.2771"/>
<stop offset="0.842" stop-color="#3F2C42" stop-opacity="0.0927696"/>
<stop offset="0.9153" stop-color="#212736" stop-opacity="0.01"/>
</linearGradient>
</defs>
</svg>
