<svg xmlns="http://www.w3.org/2000/svg" width="111" height="44" viewBox="0 0 111 44" fill="none"><path fill-rule="evenodd" clip-rule="evenodd" d="M60.7459 16.3681C60.7459 11.6766 57.2612 9.3501 53.0145 9.3501H43.0742V34.7381H52.9814C57.9791 34.7381 61.8172 32.7691 61.9 27.1811C61.9 24.6401 61.1821 22.3466 58.4099 21.1641C60.0666 20.0641 60.7514 18.0841 60.7514 16.3681M56.6206 16.2471C56.6206 18.5736 55.0744 19.5031 52.9924 19.5031H47.2657V13.3596H53.02C55.0302 13.3596 56.6482 14.2891 56.6482 16.2251M57.7251 27.0381C57.7251 29.7881 55.7481 30.8331 53.02 30.7671H47.2657V23.2101H53.02C55.8917 23.1716 57.7251 24.3101 57.7251 27.0601" fill="#1F2126"></path><path fill-rule="evenodd" clip-rule="evenodd" d="M63.8165 11.8524C63.6365 13.217 64.6013 14.4682 65.9708 14.647C67.3409 14.8263 68.5973 13.8654 68.7773 12.5014C68.8021 12.3133 68.8049 12.1236 68.7867 11.9349V11.8524C68.6525 10.4829 67.4287 9.48085 66.0536 9.6145C64.8956 9.72725 63.9678 10.6204 63.8165 11.7699V11.8524Z" fill="#1F2126"></path><path fill-rule="evenodd" clip-rule="evenodd" d="M64.3906 34.7438H68.3447V16.1538H64.3906V34.7438Z" fill="#1F2126"></path><path fill-rule="evenodd" clip-rule="evenodd" d="M79.5724 31.5153C77.4132 31.5153 75.4362 31.3393 75.4362 28.4023V20.1523H79.0202V16.1868H75.4307V9.3833H71.5098V28.4353C71.5098 33.7373 75.2153 35.5853 79.5669 34.9198L79.5724 31.5153Z" fill="#1F2126"></path><path fill-rule="evenodd" clip-rule="evenodd" d="M95.6148 27.2912V22.2422C95.6148 17.9082 91.9093 15.8677 88.3529 15.8677C84.686 15.8677 80.9805 17.9082 80.9805 22.2422V28.7597C80.9805 33.0222 84.686 35.1342 88.3529 35.1342C91.0969 35.1331 93.6367 33.6904 95.0349 31.3392L91.7215 29.4527C90.2084 32.5657 84.8903 31.8177 84.9621 28.7707V27.2912H95.6148ZM91.8043 24.0297H84.9732V22.2422C84.8296 18.6617 91.8043 18.6947 91.8043 22.1707V24.0297Z" fill="#1F2126"></path><path fill-rule="evenodd" clip-rule="evenodd" d="M97.0879 30.6956C100.037 37.1031 111.004 36.4926 111.004 29.2986C110.971 25.3551 107.84 24.2111 104.858 23.7106C103.312 23.4576 101.335 22.9241 101.478 21.2741C101.694 18.9476 106.15 19.1236 108.199 21.1641L110.574 18.5846C108.967 16.9544 106.791 16.0051 104.499 15.9336C101.335 15.9336 97.5628 17.4736 97.5628 21.5931C97.5628 25.7126 101.55 26.8236 104.19 27.3241C105.482 27.6101 107.1 28.0061 107.1 29.3646C106.956 32.3731 101.959 32.0871 100.053 28.8146L97.0879 30.6956Z" fill="#1F2126"></path><path fill-rule="evenodd" clip-rule="evenodd" d="M23.0671 0H1.06591H0.994121C0.74727 0.03575 0.522509 0.15895 0.359046 0.3465L0.0442699 0.627C0.0161057 0.7832 0.00119526 0.9416 4.34596e-05 1.1C4.34596e-05 2.9645 2.0986 3.1515 2.0986 3.1515C3.3069 3.4364 4.13802 4.54025 4.07561 5.775C4.07672 6.0005 4.05242 6.22545 4.00382 6.446C3.82103 6.8024 3.72273 7.1951 3.71666 7.5955C3.71666 9.064 5.37337 9.5645 5.37337 9.5645C6.27408 9.977 6.84675 10.8768 6.83681 11.8635C6.8357 12.3183 6.73961 12.7677 6.55517 13.1835C6.21609 13.5877 6.0217 14.0927 6.00293 14.619C6.00293 15.829 7.28412 16.5165 7.28412 16.5165C7.90373 16.9901 8.27152 17.7188 8.28367 18.4965C8.26434 19.1411 8.05284 19.7648 7.67621 20.2895C7.14054 20.674 6.81251 21.2822 6.78711 21.9395C6.84288 22.6204 7.16152 23.2529 7.67621 23.705C8.06499 24.1686 8.28533 24.7505 8.30024 25.355C8.2649 26.1756 7.90042 26.9484 7.28964 27.5C6.54964 27.7976 6.05705 28.5043 6.03606 29.2985C6.05981 29.854 6.25309 30.3892 6.5883 30.833C6.786 31.2285 6.89314 31.6624 6.90308 32.1035C6.90308 33.6435 5.40651 34.463 5.40651 34.463C4.08114 34.859 3.74979 35.7005 3.74979 36.41C3.75642 36.8153 3.84257 37.2152 4.00382 37.587C4.06954 37.8444 4.10322 38.1078 4.10322 38.3735C4.10322 40.3095 2.0986 40.898 2.0986 40.898C0.309345 41.0135 4.34596e-05 42.2345 4.34596e-05 43.0045C-0.0010137 43.2003 0.0172102 43.3955 0.0553147 43.5875L0.336956 43.8405C0.522509 44.0126 0.755001 44.126 1.00517 44.1651H23.0726C30.0386 44.1881 35.7045 38.583 35.7278 31.6448C35.7399 27.9604 34.1273 24.4563 31.3176 22.0605C36.5876 17.5285 37.1713 9.5997 32.6208 4.3505C30.2258 1.5873 26.7417 0 23.0776 0C23.0732 0 23.0704 0 23.0671 0ZM23.8292 3.762C28.526 3.762 32.3337 7.55425 32.3337 12.232C32.3337 16.9076 28.5299 20.6987 23.8347 20.702C19.139 20.6987 15.3336 16.9086 15.3302 12.232H15.3247C15.3247 7.55425 19.1319 3.762 23.8292 3.762Z" fill="#1B5AF6"></path><path fill-rule="evenodd" clip-rule="evenodd" d="M23.8356 9.84521C25.2173 9.84521 26.3373 10.9606 26.3373 12.3367C26.3373 13.7128 25.2173 14.8282 23.8356 14.8282C22.4539 14.8282 21.334 13.7128 21.334 12.3367C21.334 10.9606 22.4539 9.84521 23.8356 9.84521Z" fill="#1D1D1B"></path></svg>